<?xml version="1.0" encoding="utf-8"?>
<!-- Generator: Adobe Illustrator 26.0.0, SVG Export Plug-In . SVG Version: 6.00 Build 0)  -->
<svg version="1.1" id="Layer_1" xmlns="http://www.w3.org/2000/svg" xmlns:xlink="http://www.w3.org/1999/xlink" x="0px" y="0px"
	 viewBox="0 0 509.95 379.9" style="enable-background:new 0 0 509.95 379.9;" xml:space="preserve">
<style type="text/css">
	.st0{fill:url(#SVGID_1_);}
</style>
<g>
	<linearGradient id="SVGID_1_" gradientUnits="userSpaceOnUse" x1="56.9397" y1="290.9772" x2="491.602" y2="40.0248">
		<stop  offset="1.385225e-07" style="stop-color:#5B5EAA"/>
		<stop  offset="0.2328" style="stop-color:#5960AB"/>
		<stop  offset="0.4763" style="stop-color:#5066AF"/>
		<stop  offset="0.7247" style="stop-color:#3F70B5"/>
		<stop  offset="0.975" style="stop-color:#0F7CBF"/>
		<stop  offset="0.99" style="stop-color:#057DBF"/>
	</linearGradient>
	<path class="st0" d="M509.95,72.8c-18.69,17.22-37.42,34.38-56.07,51.65c-80.25,74.34-160.48,148.72-240.71,223.08
		c-10.85,10.06-21.82,20-32.46,30.27c-2.95,2.84-4.35,2.81-7.16-0.2C118.63,318.8,63.57,260.11,8.57,201.37
		C5.41,198-0.19,194.81,0,191.03c0.17-3.25,5.85-6.23,9.12-9.3c19.76-18.54,39.59-37.02,59.24-55.68c2.81-2.67,4.22-2.7,6.91,0.19
		c34.23,36.74,68.66,73.28,102.83,110.07c3.34,3.59,4.83,3.3,8.24,0.14C270.45,158.19,354.71,80.1,438.85,1.87
		c2.97-2.76,4.3-2.33,6.81,0.41c20.84,22.84,41.84,45.55,62.8,68.28c0.44,0.47,1,0.83,1.5,1.24
		C509.95,72.14,509.95,72.47,509.95,72.8z"/>
</g>
</svg>
